<?xml version="1.0" encoding="UTF-8" standalone="no"?><svg xmlns="http://www.w3.org/2000/svg" xmlns:xlink="http://www.w3.org/1999/xlink" contentScriptType="application/ecmascript" contentStyleType="text/css" height="394px" preserveAspectRatio="none" style="width:283px;height:394px;" version="1.1" viewBox="0 0 283 394" width="283px" zoomAndPan="magnify"><defs><filter height="300%" id="flvp96ofg5ffg" width="300%" x="-1" y="-1"><feGaussianBlur result="blurOut" stdDeviation="2.0"/><feColorMatrix in="blurOut" result="blurOut2" type="matrix" values="0 0 0 0 0 0 0 0 0 0 0 0 0 0 0 0 0 0 .4 0"/><feOffset dx="4.0" dy="4.0" in="blurOut2" result="blurOut3"/><feBlend in="SourceGraphic" in2="blurOut3" mode="normal"/></filter></defs><g><!--cluster pi-control--><rect fill="#FFFFFF" filter="url(#flvp96ofg5ffg)" height="359" style="stroke: #000000; stroke-width: 2.0;" width="191" x="81" y="24"/><text fill="#000000" font-family="sans-serif" font-size="14" font-weight="bold" lengthAdjust="spacingAndGlyphs" textLength="76" x="138.5" y="38.9951">pi-control</text><ellipse cx="176.6001" cy="73.92" fill="#FEFECE" filter="url(#flvp96ofg5ffg)" rx="62.6001" ry="14.92" style="stroke: #A80036; stroke-width: 1.5;"/><text fill="#000000" font-family="sans-serif" font-size="14" lengthAdjust="spacingAndGlyphs" textLength="87" x="133.1001" y="78.5685">authenticate</text><ellipse cx="176.6107" cy="139.8221" fill="#FEFECE" filter="url(#flvp96ofg5ffg)" rx="67.1107" ry="15.8221" style="stroke: #A80036; stroke-width: 1.5;"/><text fill="#000000" font-family="sans-serif" font-size="14" lengthAdjust="spacingAndGlyphs" textLength="99" x="127.1107" y="144.4706">add command</text><ellipse cx="176.6107" cy="206.8221" fill="#FEFECE" filter="url(#flvp96ofg5ffg)" rx="67.1107" ry="15.8221" style="stroke: #A80036; stroke-width: 1.5;"/><text fill="#000000" font-family="sans-serif" font-size="14" lengthAdjust="spacingAndGlyphs" textLength="99" x="127.1107" y="211.4706">edit command</text><ellipse cx="176.2901" cy="276.758" fill="#FEFECE" filter="url(#flvp96ofg5ffg)" rx="79.2901" ry="18.258" style="stroke: #A80036; stroke-width: 1.5;"/><text fill="#000000" font-family="sans-serif" font-size="14" lengthAdjust="spacingAndGlyphs" textLength="129" x="111.7901" y="281.4065">execute command</text><ellipse cx="176.6068" cy="348.9214" fill="#FEFECE" filter="url(#flvp96ofg5ffg)" rx="77.6068" ry="17.9214" style="stroke: #A80036; stroke-width: 1.5;"/><text fill="#000000" font-family="sans-serif" font-size="14" lengthAdjust="spacingAndGlyphs" textLength="125" x="114.1068" y="353.5698">remove command</text><!--entity user--><ellipse cx="21.5" cy="175.5" fill="#FEFECE" filter="url(#flvp96ofg5ffg)" rx="8" ry="8" style="stroke: #A80036; stroke-width: 2.0;"/><path d="M21.5,183.5 L21.5,210.5 M8.5,191.5 L34.5,191.5 M21.5,210.5 L8.5,225.5 M21.5,210.5 L34.5,225.5 " fill="#FEFECE" filter="url(#flvp96ofg5ffg)" style="stroke: #A80036; stroke-width: 2.0;"/><text fill="#000000" font-family="sans-serif" font-size="14" lengthAdjust="spacingAndGlyphs" textLength="31" x="6" y="245.4951">user</text><!--link user to authenticate--><path d="M34.6474,165.437 C42.5604,144.968 54.857,121.434 73,106 C85.7397,95.163 102.1393,87.991 118.069,83.247 " fill="none" id="user-authenticate" style="stroke: #A80036; stroke-width: 1.0;"/><polygon fill="#A80036" points="122.993,81.851,113.2432,80.4579,118.1826,83.215,115.4255,88.1545,122.993,81.851" style="stroke: #A80036; stroke-width: 1.0;"/><!--link user to add command--><path d="M37.2954,195.409 C47.0204,188.212 60.2596,179.186 73,173 C89.3074,165.082 107.967,158.428 124.858,153.216 " fill="none" id="user-add command" style="stroke: #A80036; stroke-width: 1.0;"/><polygon fill="#A80036" points="130.038,151.645,120.2645,150.4292,125.2532,153.0961,122.5863,158.0849,130.038,151.645" style="stroke: #A80036; stroke-width: 1.0;"/><!--link user to edit command--><path d="M37.1703,207 C52.8771,207 78.9703,207 104.2876,207 " fill="none" id="user-edit command" style="stroke: #A80036; stroke-width: 1.0;"/><polygon fill="#A80036" points="109.337,207,100.337,203,104.337,207,100.337,211,109.337,207" style="stroke: #A80036; stroke-width: 1.0;"/><!--link user to execute command--><path d="M37.419,218.073 C47.1933,224.989 60.4409,233.737 73,240 C88.6501,247.805 106.362,254.797 122.607,260.547 " fill="none" id="user-execute command" style="stroke: #A80036; stroke-width: 1.0;"/><polygon fill="#A80036" points="127.597,262.29,120.4211,255.5441,122.8771,260.64,117.7812,263.096,127.597,262.29" style="stroke: #A80036; stroke-width: 1.0;"/><!--link user to remove command--><path d="M33.8419,248.747 C41.6617,270.504 54.1219,296.038 73,313 C84.1552,323.0228 98.269,330.2924 112.427,335.5523 " fill="none" id="user-remove command" style="stroke: #A80036; stroke-width: 1.0;"/><polygon fill="#A80036" points="117.226,337.26,110.0871,330.475,112.5152,335.5842,107.4059,338.0123,117.226,337.26" style="stroke: #A80036; stroke-width: 1.0;"/><!--
@startuml
skinparam packageStyle rectangle
left to right direction

actor user

rectangle pi-control {
  user - -> (authenticate)
  user - -> (add command)
  user - -> (edit command)
  user - -> (execute command)
  user - -> (remove command)
}
@enduml

PlantUML version 1.2017.16beta5(Unknown compile time)
(GPL source distribution)
Java Runtime: Java(TM) SE Runtime Environment
JVM: Java HotSpot(TM) 64-Bit Server VM
Java Version: 1.7.0_25-b15
Operating System: Linux
Default Encoding: UTF-8
Language: en
Country: US
--></g></svg>